<svg width="34" height="35" fill="none" xmlns="http://www.w3.org/2000/svg"><path d="M30.268 14.024h-7.375c-.127 0-.23.112-.23.25v1.501c0 .138.103.25.23.25h7.375c.127 0 .23-.112.23-.25v-1.501c0-.138-.104-.25-.23-.25Zm-3.86 4.254h-3.515c-.127 0-.23.113-.23.25v1.502c0 .138.103.25.23.25h3.514c.127 0 .23-.112.23-.25V18.53c0-.138-.103-.25-.23-.25Zm-9.614-7.055h-1.248c-.178 0-.322.157-.322.35v7.76c0 .112.049.216.132.281l4.29 3.398a.305.305 0 0 0 .45-.075l.74-1.098v-.003a.37.37 0 0 0-.072-.489l-3.65-2.865v-6.908c.002-.194-.145-.35-.32-.35Z" fill="#fff"/><path d="M27.53 22.444H25.65a.535.535 0 0 0-.452.252 10.49 10.49 0 0 1-1.449 1.82 10.32 10.32 0 0 1-7.332 3.05 10.319 10.319 0 0 1-7.332-3.05 10.372 10.372 0 0 1-2.223-3.311 10.374 10.374 0 0 1-.814-4.054 10.387 10.387 0 0 1 3.037-7.365 10.319 10.319 0 0 1 7.332-3.05 10.32 10.32 0 0 1 7.332 3.05 10.485 10.485 0 0 1 1.449 1.821c.097.157.27.252.452.252h1.881a.299.299 0 0 0 .267-.435c-2.122-4.24-6.424-6.996-11.228-7.051C9.536 4.284 3.694 10.067 3.68 17.125c-.013 7.071 5.692 12.808 12.732 12.808 4.865 0 9.24-2.765 11.384-7.054a.3.3 0 0 0-.267-.435Z" fill="#fff"/></svg>